<?xml version="1.0" encoding="UTF-8"?>
<svg version="1.1" xmlns="http://www.w3.org/2000/svg" width="800" height="185">
<path d="M0 0 C1.00365601 0.11057739 1.00365601 0.11057739 2.02758789 0.22338867 C10.15454346 1.29449156 16.83937384 4.32728574 22.13671875 10.7890625 C26.34487611 17.49258335 25.20671365 25.65744305 24.875 33.25 C20.89584841 33.27886984 16.91672347 33.29675406 12.9375 33.3125 C11.23303711 33.32506836 11.23303711 33.32506836 9.49414062 33.33789062 C8.41455078 33.34111328 7.33496094 33.34433594 6.22265625 33.34765625 C4.72230835 33.35551147 4.72230835 33.35551147 3.19165039 33.36352539 C0.875 33.25 0.875 33.25 -0.125 32.25 C-0.49260731 29.92182036 -0.82741581 27.5881615 -1.125 25.25 C-5.10254128 24.51665571 -5.10254128 24.51665571 -9.125 24.25 C-9.02712655 28.26281163 -8.16400483 30.60138694 -5.4375 33.4375 C-0.73884121 37.81579569 4.41730686 41.66939999 9.48828125 45.6015625 C18.43745411 52.56175507 24.53241294 58.64761989 28.875 69.25 C29.08253906 68.54875 29.29007812 67.8475 29.50390625 67.125 C32.31789181 58.45933736 36.09282194 52.28783259 44 47.5 C52.75386309 43.08578624 62.10305462 40.69117135 71.875 40.25 C71.81476735 38.64479996 71.72591401 37.04065673 71.625 35.4375 C71.57859375 34.54417969 71.5321875 33.65085938 71.484375 32.73046875 C71.07233912 30.12899103 71.07233912 30.12899103 69.03125 28.40625 C66.03367018 26.79885213 64.09324046 27.44543988 60.875 28.25 C60.545 31.22 60.215 34.19 59.875 37.25 C50.635 37.25 41.395 37.25 31.875 37.25 C31.875 16.33510638 31.875 16.33510638 39.875 8.25 C48.75804426 0.9659037 58.81889014 -1.43320366 70.19140625 -0.46875 C78.60731499 0.70148065 86.55837283 2.13076743 92.875 8.25 C92.875 8.91 92.875 9.57 92.875 10.25 C93.535 10.25 94.195 10.25 94.875 10.25 C101.30046008 21.60164615 101.1687266 33.32637429 101.10546875 46.0390625 C101.10427422 47.63520266 101.10382437 49.23134354 101.1040802 50.82748413 C101.10252713 54.14724218 101.09432121 57.46689059 101.08081055 60.78662109 C101.06368309 65.04940995 101.06000077 69.31208041 101.06075573 73.57489967 C101.06048471 76.85872535 101.05501672 80.14252497 101.04775429 83.42634201 C101.04456758 84.99968647 101.04260021 86.57303387 101.04186058 88.14638138 C101.03970487 90.33152641 101.03098165 92.51654259 101.02026367 94.70166016 C101.01645187 95.94533356 101.01264008 97.18900696 101.00871277 98.47036743 C100.875 101.25 100.875 101.25 99.875 102.25 C97.80237924 102.33767112 95.72679706 102.35695873 93.65234375 102.34765625 C92.39228516 102.34443359 91.13222656 102.34121094 89.83398438 102.33789062 C88.49348891 102.32953403 87.15299412 102.32106907 85.8125 102.3125 C84.46810058 102.3074866 83.1236994 102.30292342 81.77929688 102.29882812 C78.47782059 102.28699488 75.17643197 102.27050971 71.875 102.25 C71.875 100.27 71.875 98.29 71.875 96.25 C70.6375 97.425625 70.6375 97.425625 69.375 98.625 C63.21963144 103.70174089 55.52268238 103.83828326 47.875 103.25 C42.51272218 102.26691573 38.40778962 100.46404382 34.875 96.25 C32.20609863 91.81142279 29.96687552 87.33367848 28.875 82.25 C28.34712891 83.33667969 28.34712891 83.33667969 27.80859375 84.4453125 C23.17727727 93.51447009 18.69083812 98.8590741 8.875 102.25 C-2.56679745 104.63785338 -17.01029142 104.95827055 -27.375 99 C-32.60381927 95.43442344 -36.51411758 91.007734 -38.6328125 84.94921875 C-39.81049677 78.49064864 -39.27781462 71.77009042 -39.125 65.25 C-30.875 65.25 -22.625 65.25 -14.125 65.25 C-13.795 68.88 -13.465 72.51 -13.125 76.25 C-11.34130633 78.45162356 -11.34130633 78.45162356 -8.99609375 78.48046875 C-8.19300781 78.46628906 -7.38992188 78.45210938 -6.5625 78.4375 C-5.75683594 78.43105469 -4.95117188 78.42460938 -4.12109375 78.41796875 C-2.12620115 78.46630912 -2.12620115 78.46630912 -1.125 77.25 C-0.71182554 73.685748 -0.59877872 71.91995215 -2.85546875 69.046875 C-3.66628906 68.37140625 -4.47710937 67.6959375 -5.3125 67 C-6.22 66.23429687 -7.1275 65.46859375 -8.0625 64.6796875 C-11.83590705 61.68598956 -15.65443356 58.75653327 -19.49658203 55.85180664 C-23.74428859 52.61627367 -27.55373012 49.21235995 -31.125 45.25 C-31.8675 44.46625 -32.61 43.6825 -33.375 42.875 C-37.97547472 35.97428792 -39.12683015 28.41434 -38.125 20.25 C-36.35129995 12.60858782 -32.74908794 7.4663964 -26.125 3.25 C-23.18039067 1.83512566 -20.31128246 0.95010013 -17.125 0.25 C-16.46242188 0.09660156 -15.79984375 -0.05679688 -15.1171875 -0.21484375 C-10.03523752 -1.07471742 -5.09049937 -0.58492048 0 0 Z M60.875 63.25 C58.23983218 66.28443567 57.91523023 67.86110778 57.5 71.875 C57.57925849 75.1405731 57.57925849 75.1405731 59.11328125 76.94140625 C61.35838042 78.60905197 62.66571204 78.62186284 65.4375 78.5625 C66.22253906 78.55863281 67.00757813 78.55476563 67.81640625 78.55078125 C70.09626834 78.42703023 70.09626834 78.42703023 71.875 76.25 C72.15154388 74.31318864 72.15154388 74.31318864 72.0703125 72.1171875 C72.06386719 71.31152344 72.05742187 70.50585938 72.05078125 69.67578125 C72.03402344 68.83402344 72.01726562 67.99226563 72 67.125 C71.98646484 65.85076172 71.98646484 65.85076172 71.97265625 64.55078125 C71.94905647 62.45040116 71.91318483 60.35016556 71.875 58.25 C67.8276259 58.25 64.16254955 61.06432145 60.875 63.25 Z " fill="#F1F1F1" transform="translate(367.125,44.75)"/>
<path d="M0 0 C12.6049829 10.45862359 19.3060887 24.95011083 21.0859375 40.96875 C11.1859375 40.96875 1.2859375 40.96875 -8.9140625 40.96875 C-10.9140625 35.96875 -12.9140625 30.96875 -14.9140625 25.96875 C-16.78476932 24.75212493 -16.78476932 24.75212493 -18.9140625 23.96875 C-20.17052203 23.14518829 -21.42042343 22.31154672 -22.6640625 21.46875 C-30.89257554 16.34105529 -40.11730968 15.86276951 -49.5546875 17.3984375 C-58.54750967 19.68906202 -65.63271298 24.54397129 -70.8515625 32.21875 C-77.77241132 44.26494441 -78.97003952 58.48746642 -75.7890625 71.96875 C-72.76173624 81.2619376 -66.59148373 89.26745872 -57.99194336 94.03417969 C-52.30650558 96.82982647 -47.40275574 97.67501236 -41.1015625 97.59375 C-40.23007568 97.58754639 -39.35858887 97.58134277 -38.46069336 97.57495117 C-29.40726498 97.27689246 -22.97942221 94.25563657 -15.9765625 88.59375 C-14.23605684 86.37856098 -12.76257084 84.19483762 -11.28515625 81.8046875 C-10.61697876 80.72646729 -10.61697876 80.72646729 -9.93530273 79.62646484 C-9.42978882 78.805896 -9.42978882 78.805896 -8.9140625 77.96875 C-9.90849365 77.94369385 -10.9029248 77.9186377 -11.92749023 77.89282227 C-15.60454997 77.79890118 -19.281414 77.69864381 -22.95825195 77.59643555 C-24.5519555 77.55302854 -26.1457073 77.51135781 -27.73950195 77.47143555 C-30.02570158 77.41387193 -32.31165699 77.35013851 -34.59765625 77.28515625 C-35.31432968 77.26844376 -36.03100311 77.25173126 -36.76939392 77.23451233 C-41.80019079 77.08262171 -41.80019079 77.08262171 -42.9140625 75.96875 C-43.16614972 72.16286856 -43.09928594 68.34449544 -43.1015625 64.53125 C-43.11380859 63.45552734 -43.12605469 62.37980469 -43.13867188 61.27148438 C-43.14060547 60.24474609 -43.14253906 59.21800781 -43.14453125 58.16015625 C-43.14864014 57.21342041 -43.15274902 56.26668457 -43.15698242 55.29125977 C-42.9140625 52.96875 -42.9140625 52.96875 -40.9140625 50.96875 C-38.28855896 50.72151184 -38.28855896 50.72151184 -34.91967773 50.72583008 C-33.66174911 50.72275345 -32.4038205 50.71967682 -31.10777283 50.71650696 C-29.72939878 50.72340418 -28.35102654 50.73067111 -26.97265625 50.73828125 C-25.5654352 50.73947296 -24.15821335 50.73992623 -22.75099182 50.7396698 C-19.80114771 50.74123487 -16.85142492 50.74952701 -13.90161133 50.76293945 C-10.11274421 50.77994496 -6.32401033 50.78375337 -2.53510952 50.78299427 C0.37043031 50.78326563 3.27594078 50.78874107 6.18147087 50.79599571 C7.57897659 50.79918666 8.97648566 50.80115078 10.37399483 50.80188942 C12.32299107 50.80404758 14.27197502 50.81357687 16.22094727 50.82348633 C17.33188248 50.82729813 18.44281769 50.83110992 19.5874176 50.83503723 C22.0859375 50.96875 22.0859375 50.96875 23.0859375 51.96875 C23.37141778 55.89842927 23.31796247 59.84247183 23.3359375 63.78125 C23.366875 65.41223633 23.366875 65.41223633 23.3984375 67.07617188 C23.47962249 84.1554631 17.75190718 96.66257467 6.0859375 108.96875 C-8.78918203 122.54662073 -26.27055671 127.65652229 -46.10546875 127.14453125 C-63.40832357 126.34593795 -78.16947451 119.16255658 -90.1171875 106.6640625 C-104.91823491 89.43383555 -108.35999343 69.05534124 -107.19335938 47.04003906 C-105.75090019 31.17803161 -98.02006617 14.44122928 -86.4765625 3.40625 C-61.11605616 -17.13527337 -26.89021734 -18.74385123 0 0 Z " fill="#F0F0F0" transform="translate(114.9140625,21.03125)"/>
<path d="M0 0 C1.10794922 -0.61488281 1.10794922 -0.61488281 2.23828125 -1.2421875 C10.17015327 -5.45504964 18.22425609 -9.31743827 27.375 -7.3125 C35.10679859 -4.51305568 39.57243103 -0.57655769 43.1470871 6.75764465 C44.54865957 10.44245646 44.52647964 13.90024809 44.45410156 17.80273438 C44.45468567 18.64270966 44.45526978 19.48268494 44.45587158 20.34811401 C44.45310692 23.09709444 44.42209287 25.84496135 44.390625 28.59375 C44.38315683 30.51045133 44.37746662 32.42716035 44.37347412 34.34387207 C44.35826317 39.36801547 44.31902076 44.39169013 44.2746582 49.41564941 C44.23360726 54.55047263 44.21544218 59.68537219 44.1953125 64.8203125 C44.15252174 74.88044652 44.0822093 84.94011079 44 95 C34.76 95 25.52 95 16 95 C15.67 70.58 15.34 46.16 15 21 C9.66379443 19.40067702 9.66379443 19.40067702 4 23 C3.67 46.76 3.34 70.52 3 95 C-5.58 95 -14.16 95 -23 95 C-23.33 70.25 -23.66 45.5 -24 20 C-31.37828793 20.75933726 -31.37828793 20.75933726 -36 22 C-36 46.09 -36 70.18 -36 95 C-45.24 95 -54.48 95 -64 95 C-64 61.67 -64 28.34 -64 -6 C-54.76 -6 -45.52 -6 -36 -6 C-36 -3.69 -36 -1.38 -36 1 C-35.48050781 0.59007812 -34.96101563 0.18015625 -34.42578125 -0.2421875 C-21.99463105 -9.84703183 -12.32102573 -9.29253831 0 0 Z " fill="#E8E8E8" transform="translate(280,52)"/>
<path d="M0 0 C15.18 0 30.36 0 46 0 C46 24.42 46 48.84 46 74 C48.97 74 51.94 74 55 74 C56.74545605 75.74545605 56.1302316 78.16124217 56.1328125 80.53125 C56.13410156 81.65144531 56.13539063 82.77164063 56.13671875 83.92578125 C56.13285156 85.10527344 56.12898437 86.28476563 56.125 87.5 C56.12886719 88.67949219 56.13273438 89.85898438 56.13671875 91.07421875 C56.13542969 92.19441406 56.13414062 93.31460938 56.1328125 94.46875 C56.13168457 95.50451172 56.13055664 96.54027344 56.12939453 97.60742188 C56 100 56 100 55 101 C52.03 101 49.06 101 46 101 C46 113.21 46 125.42 46 138 C36.43 138 26.86 138 17 138 C17 125.79 17 113.58 17 101 C3.8 101 -9.4 101 -23 101 C-23.04125 97.473125 -23.0825 93.94625 -23.125 90.3125 C-23.14320801 89.20946533 -23.16141602 88.10643066 -23.18017578 86.9699707 C-23.1851709 86.08913818 -23.19016602 85.20830566 -23.1953125 84.30078125 C-23.20578613 83.40528564 -23.21625977 82.50979004 -23.22705078 81.5871582 C-22.9742597 78.706699 -22.13354455 76.64965718 -21 74 C-20.50400907 72.17353899 -20.04084409 70.33794476 -19.60546875 68.49609375 C-18.01377625 61.96487209 -16.1842884 55.51817475 -14.3125 49.0625 C-12.09026495 41.35461145 -9.88807186 33.64323194 -7.76953125 25.90625 C-7.49823143 24.91618202 -7.49823143 24.91618202 -7.22145081 23.90611267 C-6.34810946 20.71533911 -5.47906205 17.52349215 -4.61450195 14.33032227 C-4.14403442 12.60640259 -4.14403442 12.60640259 -3.6640625 10.84765625 C-3.39029785 9.83711182 -3.1165332 8.82656738 -2.83447266 7.78540039 C-2.0418819 5.13979831 -1.02569811 2.56424528 0 0 Z M16 29 C15.84144531 29.82757813 15.68289063 30.65515625 15.51953125 31.5078125 C13.76931456 40.46195977 11.81332698 49.35370097 9.71411133 58.23291016 C8.49228079 63.48587923 7.5647037 68.63531485 7 74 C10.3 74 13.6 74 17 74 C17 59.15 17 44.3 17 29 C16.67 29 16.34 29 16 29 Z " fill="#FAFAFA" transform="translate(704,9)"/>
<path d="M0 0 C7.71436177 6.45919139 10.65279671 14.04581779 11.9921875 23.87890625 C14.17781041 48.79500746 3.809087 67.36574204 -10.265625 86.85546875 C-14.41016868 92.63773514 -18.43880741 98.5023225 -22.48828125 104.3515625 C-10.93828125 104.6815625 0.61171875 105.0115625 12.51171875 105.3515625 C12.51171875 114.5915625 12.51171875 123.8315625 12.51171875 133.3515625 C-10.58828125 133.3515625 -33.68828125 133.3515625 -57.48828125 133.3515625 C-57.48828125 104.70670382 -50.40985273 88.83543305 -33.86328125 66.6640625 C-24.66938799 54.33552022 -16.84635768 43.50519293 -18.48828125 27.3515625 C-19.43055312 24.60257258 -19.43055312 24.60257258 -20.48828125 22.3515625 C-22.13828125 22.3515625 -23.78828125 22.3515625 -25.48828125 22.3515625 C-27.70069198 27.95633635 -27.84180783 31.88682834 -28.48828125 38.3515625 C-37.39828125 38.3515625 -46.30828125 38.3515625 -55.48828125 38.3515625 C-56.45372671 11.96271987 -56.45372671 11.96271987 -47.5078125 2.1875 C-35.27192751 -8.64426704 -13.39305151 -8.87263381 0 0 Z " fill="#F1F1F1" transform="translate(671.48828125,13.6484375)"/>
<path d="M0 0 C9.24 0 18.48 0 28 0 C29.30893276 5.8901974 30.46955766 11.61546228 31.3125 17.5625 C32.7079525 27.1350963 34.18900524 36.69311546 35.6875 46.25 C35.9164364 47.71166775 36.1453592 49.17333763 36.37426758 50.63500977 C36.91554609 54.09010583 37.45755419 57.54508698 38 61 C39.66766429 52.879463 41.29242933 44.77635338 42.4375 36.5625 C43.58584706 28.6528865 44.82374808 20.76092858 46.125 12.875 C46.29572021 11.82513916 46.46644043 10.77527832 46.64233398 9.69360352 C46.80419189 8.71963623 46.9660498 7.74566895 47.1328125 6.7421875 C47.27605957 5.8744873 47.41930664 5.00678711 47.56689453 4.11279297 C48 2 48 2 49 0 C57.91 0 66.82 0 76 0 C75.02094646 8.66085822 73.92147305 16.95905591 71.82177734 25.42358398 C70.95455611 29.19777409 70.26018109 32.98511153 69.609375 36.80078125 C68.04683179 45.79897453 66.38512942 54.77640957 64.6875 63.75 C64.53792847 64.54249146 64.38835693 65.33498291 64.23425293 66.15148926 C61.95007297 78.23657037 59.53250847 90.28641143 56.99780273 102.3215332 C55.36760987 110.09480377 53.9055257 117.8740811 52.640625 125.71484375 C52 129 52 129 50 135 C40.76 135 31.52 135 22 135 C23.23817019 129.42823413 24.49869466 123.98914764 26 118.5 C27.48367605 113.02705211 28.83174452 107.54921353 30 102 C26.37 101.67 22.74 101.34 19 101 C16.98368198 92.61636191 15.19683082 84.20343062 13.5 75.75 C13.19799683 74.25351929 13.19799683 74.25351929 12.88989258 72.72680664 C11.71723206 66.84092572 10.63132239 60.94432182 9.60546875 55.03125 C8.47308852 48.51907997 7.24288069 42.03044558 5.95703125 35.546875 C5.7819101 34.66247742 5.60678894 33.77807983 5.42636108 32.86688232 C4.70513327 29.23076597 3.98194147 25.59506254 3.25317383 21.96044922 C2.71274379 19.2609098 2.17820895 16.5602562 1.64453125 13.859375 C1.47895218 13.0416864 1.31337311 12.2239978 1.14277649 11.38153076 C0.99229355 10.61592834 0.84181061 9.85032593 0.68676758 9.06152344 C0.48716179 8.06255035 0.48716179 8.06255035 0.28352356 7.043396 C0 5 0 5 0 0 Z " fill="#F2F2F2" transform="translate(138,46)"/>
<path d="M0 0 C5.17279268 4.37089687 7.20692786 10.08838613 8.7890625 16.51171875 C8.95939215 19.23188182 9.04347757 21.84290391 9.01611328 24.55834961 C9.01640533 25.32990387 9.01669739 26.10145813 9.01699829 26.89639282 C9.01561521 29.42323416 9.00010268 31.94977326 8.984375 34.4765625 C8.98064123 36.23775573 8.97779598 37.99895104 8.97579956 39.76014709 C8.96819177 44.37808037 8.94856799 48.9958863 8.9263916 53.61376953 C8.90587148 58.33299029 8.89678469 63.05223179 8.88671875 67.77148438 C8.86531922 77.0182939 8.83016054 86.26497577 8.7890625 95.51171875 C-0.4509375 95.51171875 -9.6909375 95.51171875 -19.2109375 95.51171875 C-19.5409375 93.86171875 -19.8709375 92.21171875 -20.2109375 90.51171875 C-20.73042969 90.86105469 -21.24992187 91.21039063 -21.78515625 91.5703125 C-29.93767518 96.88979343 -37.312681 97.51142324 -46.8984375 95.88671875 C-53.50625704 93.14385026 -57.62116294 88.97024565 -60.5 82.4375 C-63.56773853 74.12763683 -63.43027395 62.79614456 -60.2109375 54.51171875 C-54.44507428 43.85844792 -46.45711616 39.19815496 -35.2109375 35.51171875 C-29.86487122 34.11606428 -24.7596547 33.219681 -19.2109375 33.51171875 C-19.41205311 31.71668691 -19.6478226 29.92551135 -19.8984375 28.13671875 C-20.02605469 27.13898438 -20.15367187 26.14125 -20.28515625 25.11328125 C-20.9665345 22.29678665 -20.9665345 22.29678665 -23.65625 21.13671875 C-26.13820685 20.34975204 -26.13820685 20.34975204 -28.3984375 20.88671875 C-31.13584986 23.03556981 -31.13584986 23.03556981 -32.2109375 30.51171875 C-41.1209375 30.51171875 -50.0309375 30.51171875 -59.2109375 30.51171875 C-59.7187326 11.72330004 -59.7187326 11.72330004 -54.0234375 3.26171875 C-39.94553579 -10.5033407 -16.11223015 -10.6879933 0 0 Z M-25.6484375 53.76171875 C-26.43089844 54.179375 -27.21335937 54.59703125 -28.01953125 55.02734375 C-30.41428229 56.64945675 -31.73828819 58.02778811 -33.2109375 60.51171875 C-33.96179018 64.7181085 -33.61449677 67.90637985 -31.2109375 71.51171875 C-29.11012453 71.95135429 -29.11012453 71.95135429 -26.7734375 71.82421875 C-25.59974609 71.81841797 -25.59974609 71.81841797 -24.40234375 71.8125 C-21.92233646 71.63449994 -21.92233646 71.63449994 -19.2109375 69.51171875 C-18.79665404 67.58095397 -18.79665404 67.58095397 -18.91796875 65.37890625 C-18.92763672 64.57324219 -18.93730469 63.76757812 -18.94726562 62.9375 C-18.97240234 62.09574219 -18.99753906 61.25398438 -19.0234375 60.38671875 C-19.03697266 59.53722656 -19.05050781 58.68773438 -19.06445312 57.8125 C-19.09985531 55.71197038 -19.15366349 53.61176582 -19.2109375 51.51171875 C-21.86902788 51.51171875 -23.31970919 52.49219855 -25.6484375 53.76171875 Z " fill="#F2F2F2" transform="translate(533.2109375,51.48828125)"/>
<path d="M0 0 C6.34303532 6.52959518 7.2873415 11.67618762 7.1875 20.4375 C7.166875 22.995 7.14625 25.5525 7.125 28.1875 C-0.795 28.1875 -8.715 28.1875 -16.875 28.1875 C-17.37 23.7325 -17.37 23.7325 -17.875 19.1875 C-20.185 19.1875 -22.495 19.1875 -24.875 19.1875 C-25.74350174 21.43625747 -25.74350174 21.43625747 -25.875 24.1875 C-23.12272347 28.26915281 -19.82093851 30.92074605 -15.875 33.8125 C8.58473043 52.16165008 8.58473043 52.16165008 10.8828125 64.19140625 C11.88011067 72.41107341 11.3082105 80.48650004 6.5 87.4375 C1.53666504 93.45584335 -4.22289066 96.66516747 -11.90625 97.91015625 C-24.50016465 99.08669301 -37.35233043 99.53951034 -47.96484375 91.828125 C-52.35646473 88.0561806 -54.40414692 83.6795265 -55.875 78.1875 C-56.10428979 75.05563395 -56.06455278 71.95045042 -56 68.8125 C-55.95875 65.96625 -55.9175 63.12 -55.875 60.1875 C-47.955 60.1875 -40.035 60.1875 -31.875 60.1875 C-30.885 66.6225 -30.885 66.6225 -29.875 73.1875 C-25.915 73.1875 -21.955 73.1875 -17.875 73.1875 C-18.0296875 71.269375 -18.0296875 71.269375 -18.1875 69.3125 C-18.24550781 68.59320313 -18.30351563 67.87390625 -18.36328125 67.1328125 C-18.74893036 64.79230784 -18.74893036 64.79230784 -21.875 63.1875 C-21.875 62.5275 -21.875 61.8675 -21.875 61.1875 C-22.40480469 60.95546875 -22.93460938 60.7234375 -23.48046875 60.484375 C-26.62761018 58.77988731 -29.37654343 56.63505383 -32.1875 54.4375 C-32.76709473 53.98503906 -33.34668945 53.53257813 -33.94384766 53.06640625 C-35.08517074 52.17205485 -36.22487856 51.27563749 -37.36279297 50.37695312 C-38.57750074 49.42150329 -39.80443146 48.48160269 -41.03515625 47.546875 C-47.73958836 42.23219989 -53.52254049 34.75307689 -54.875 26.1875 C-55.57128932 17.7417684 -54.64239284 10.63509564 -50.125 3.375 C-37.90898509 -8.50168116 -14.02903735 -8.84439311 0 0 Z " fill="#EDEDED" transform="translate(601.875,49.8125)"/>
<path d="M0 0 C1.00365601 0.11057739 1.00365601 0.11057739 2.02758789 0.22338867 C10.15454346 1.29449156 16.83937384 4.32728574 22.13671875 10.7890625 C26.34487611 17.49258335 25.20671365 25.65744305 24.875 33.25 C20.89584841 33.27886984 16.91672347 33.29675406 12.9375 33.3125 C11.23303711 33.32506836 11.23303711 33.32506836 9.49414062 33.33789062 C8.41455078 33.34111328 7.33496094 33.34433594 6.22265625 33.34765625 C4.72230835 33.35551147 4.72230835 33.35551147 3.19165039 33.36352539 C0.875 33.25 0.875 33.25 -0.125 32.25 C-0.49260731 29.92182036 -0.82741581 27.5881615 -1.125 25.25 C-5.10254128 24.51665571 -5.10254128 24.51665571 -9.125 24.25 C-9.02712655 28.26281163 -8.16400483 30.60138694 -5.4375 33.4375 C-0.73884121 37.81579569 4.41730686 41.66939999 9.48828125 45.6015625 C24.04101727 56.91990964 24.04101727 56.91990964 26.875 64.25 C27.80052237 74.16770288 28.29244695 84.03372322 21.875 92.25 C17.08135019 97.68357879 11.29900793 100.83041981 4.03051758 101.51977539 C0.82746475 101.6167302 -2.35841892 101.61009479 -5.5625 101.5625 C-6.64337891 101.56572266 -7.72425781 101.56894531 -8.83789062 101.57226562 C-18.30322114 101.50912515 -26.38097159 101.19550682 -33.39453125 94.3359375 C-40.57845076 85.67631443 -39.46291052 75.89418128 -39.125 65.25 C-30.875 65.25 -22.625 65.25 -14.125 65.25 C-13.795 68.88 -13.465 72.51 -13.125 76.25 C-11.34130633 78.45162356 -11.34130633 78.45162356 -8.99609375 78.48046875 C-8.19300781 78.46628906 -7.38992188 78.45210938 -6.5625 78.4375 C-5.75683594 78.43105469 -4.95117188 78.42460938 -4.12109375 78.41796875 C-2.12620115 78.46630912 -2.12620115 78.46630912 -1.125 77.25 C-0.71182554 73.685748 -0.59877872 71.91995215 -2.85546875 69.046875 C-3.66628906 68.37140625 -4.47710937 67.6959375 -5.3125 67 C-6.22 66.23429687 -7.1275 65.46859375 -8.0625 64.6796875 C-11.83590705 61.68598956 -15.65443356 58.75653327 -19.49658203 55.85180664 C-23.74428859 52.61627367 -27.55373012 49.21235995 -31.125 45.25 C-31.8675 44.46625 -32.61 43.6825 -33.375 42.875 C-37.97547472 35.97428792 -39.12683015 28.41434 -38.125 20.25 C-36.35129995 12.60858782 -32.74908794 7.4663964 -26.125 3.25 C-23.18039067 1.83512566 -20.31128246 0.95010013 -17.125 0.25 C-16.46242188 0.09660156 -15.79984375 -0.05679688 -15.1171875 -0.21484375 C-10.03523752 -1.07471742 -5.09049937 -0.58492048 0 0 Z " fill="#EFEFEF" transform="translate(367.125,44.75)"/>
<path d="M0 0 C5.06145557 4.23749769 7.69280525 8.27913219 8.4375 14.875 C8.18823817 20.7893035 5.68299828 25.35907668 1.5 29.4375 C-3.09975717 32.31234823 -7.62945491 32.54308883 -13 32 C-19.8371965 29.91407565 -22.79431852 26.70955521 -26.375 20.6875 C-27.63560191 15.2669118 -26.8320067 10.57486983 -24.25 5.6875 C-17.63094954 -2.21858805 -9.72054308 -4.43763923 0 0 Z " fill="#FB3F35" transform="translate(784,116)"/>
<path d="M0 0 C15.18 0 30.36 0 46 0 C46 24.42 46 48.84 46 74 C48.97 74 51.94 74 55 74 C56.74545605 75.74545605 56.1302316 78.16124217 56.1328125 80.53125 C56.13410156 81.65144531 56.13539063 82.77164063 56.13671875 83.92578125 C56.13285156 85.10527344 56.12898437 86.28476563 56.125 87.5 C56.12886719 88.67949219 56.13273438 89.85898438 56.13671875 91.07421875 C56.13542969 92.19441406 56.13414062 93.31460938 56.1328125 94.46875 C56.13168457 95.50451172 56.13055664 96.54027344 56.12939453 97.60742188 C56 100 56 100 55 101 C52.03 101 49.06 101 46 101 C46 113.21 46 125.42 46 138 C36.43 138 26.86 138 17 138 C17 125.79 17 113.58 17 101 C3.8 101 -9.4 101 -23 101 C-23.04125 97.473125 -23.0825 93.94625 -23.125 90.3125 C-23.14320801 89.20946533 -23.16141602 88.10643066 -23.18017578 86.9699707 C-23.1851709 86.08913818 -23.19016602 85.20830566 -23.1953125 84.30078125 C-23.20578613 83.40528564 -23.21625977 82.50979004 -23.22705078 81.5871582 C-22.97703456 78.73831743 -22.18016512 76.59105457 -21 74 C-20 77 -20 77 -21 80 C-21.1464714 81.55266653 -21.24694074 83.10995662 -21.31640625 84.66796875 C-21.35451416 85.47258545 -21.39262207 86.27720215 -21.43188477 87.10620117 C-21.49653931 88.63144409 -21.49653931 88.63144409 -21.5625 90.1875 C-21.706875 93.425625 -21.85125 96.66375 -22 100 C-8.8 100 4.4 100 18 100 C18 112.21 18 124.42 18 137 C26.91 137 35.82 137 45 137 C45 124.79 45 112.58 45 100 C47.97 100 50.94 100 54 100 C54 92.08 54 84.16 54 76 C51.03 76 48.06 76 45 76 C45 51.58 45 27.16 45 2 C30.15 2 15.3 2 0 2 C0 1.34 0 0.68 0 0 Z " fill="#313131" transform="translate(704,9)"/>
<path d="M0 0 C1.1117308 0.00142502 2.22346161 0.00285004 3.36888123 0.00431824 C4.62680984 0.00124161 5.88473846 -0.00183502 7.18078613 -0.00500488 C8.55916018 0.00189234 9.93753242 0.00915927 11.31590271 0.01676941 C12.72312376 0.01796112 14.13034561 0.01841439 15.53756714 0.01815796 C18.48741125 0.01972303 21.43713404 0.02801517 24.38694763 0.04142761 C28.17581475 0.05843312 31.96454863 0.06224153 35.75344944 0.06148243 C38.65898927 0.06175379 41.56449974 0.06722923 44.47002983 0.07448387 C45.86753555 0.07767482 47.26504462 0.07963894 48.66255379 0.08037758 C50.61155003 0.08253574 52.56053398 0.09206503 54.50950623 0.10197449 C55.62044144 0.10578629 56.73137665 0.10959808 57.87597656 0.11352539 C60.37449646 0.24723816 60.37449646 0.24723816 61.37449646 1.24723816 C61.65997674 5.17691743 61.60652143 9.12095999 61.62449646 13.05973816 C61.64512146 14.14706238 61.66574646 15.2343866 61.68699646 16.35466003 C61.72291542 23.91111036 61.03590377 31.11340217 58.37449646 38.24723816 C57.38449646 38.74223816 57.38449646 38.74223816 56.37449646 39.24723816 C56.97993521 34.30282173 57.98444654 30.11241288 59.37449646 25.24723816 C59.70449646 17.65723816 60.03449646 10.06723816 60.37449646 2.24723816 C39.58449646 2.24723816 18.79449646 2.24723816 -2.62550354 2.24723816 C-2.62550354 9.83723816 -2.62550354 17.42723816 -2.62550354 25.24723816 C8.59449646 25.24723816 19.81449646 25.24723816 31.37449646 25.24723816 C30.05886717 33.14101393 26.27300683 38.2304239 19.99949646 43.18473816 C16.12079414 45.74697887 11.91656769 46.55717292 7.37449646 47.24723816 C9.55919247 45.06254215 11.39308966 44.22068926 14.18699646 42.93473816 C20.11057975 40.0069901 23.5568038 36.68055468 27.01121521 31.07926941 C27.45553894 30.3610199 27.89986267 29.64277039 28.35765076 28.90275574 C28.69320984 28.35643494 29.02876892 27.81011414 29.37449646 27.24723816 C27.88284973 27.20965393 27.88284973 27.20965393 26.36106873 27.17131042 C22.68400899 27.07738934 19.00714496 26.97713197 15.33030701 26.87492371 C13.73660346 26.8315167 12.14285166 26.78984597 10.54905701 26.74992371 C8.26285738 26.69236008 5.97690197 26.62862667 3.69090271 26.56364441 C2.97422928 26.54693192 2.25755585 26.53021942 1.51916504 26.51300049 C-3.51163183 26.36110987 -3.51163183 26.36110987 -4.62550354 25.24723816 C-4.87759076 21.44135671 -4.81072698 17.6229836 -4.81300354 13.80973816 C-4.82524963 12.7340155 -4.83749573 11.65829285 -4.85011292 10.54997253 C-4.85204651 9.52323425 -4.8539801 8.49649597 -4.85597229 7.43864441 C-4.86008118 6.49190857 -4.86419006 5.54517273 -4.86842346 4.56974792 C-4.5038055 1.08370706 -3.43354561 0.32332979 0 0 Z " fill="#282828" transform="translate(76.62550354003906,71.75276184082031)"/>
<path d="M0 0 C1.00293091 0.11069824 1.00293091 0.11069824 2.02612305 0.22363281 C10.15352189 1.29300105 16.83948352 4.32741953 22.13671875 10.7890625 C26.34487611 17.49258335 25.20671365 25.65744305 24.875 33.25 C20.89584841 33.27886984 16.91672347 33.29675406 12.9375 33.3125 C11.23303711 33.32506836 11.23303711 33.32506836 9.49414062 33.33789062 C8.41455078 33.34111328 7.33496094 33.34433594 6.22265625 33.34765625 C4.72230835 33.35551147 4.72230835 33.35551147 3.19165039 33.36352539 C0.875 33.25 0.875 33.25 -0.125 32.25 C-0.49260731 29.92182036 -0.82741581 27.5881615 -1.125 25.25 C-5.10254128 24.51665571 -5.10254128 24.51665571 -9.125 24.25 C-9.02712655 28.26281163 -8.16400483 30.60138694 -5.4375 33.4375 C-0.74460736 37.81042269 4.40356663 41.66038989 9.47265625 45.58203125 C13.41513557 48.64621925 17.18220565 51.88978651 20.875 55.25 C20.38 56.24 20.38 56.24 19.875 57.25 C19.01841797 56.44949219 19.01841797 56.44949219 18.14453125 55.6328125 C13.31892126 51.19846818 8.41989629 47.06349306 3.1875 43.125 C-9.29607242 33.64467969 -9.29607242 33.64467969 -11.25 28 C-11.125 25.25 -11.125 25.25 -10.0625 23.375 C-7.25242385 21.74334288 -5.32156806 21.8585835 -2.125 22.25 C0.25 23.375 0.25 23.375 1.875 25.25 C1.875 27.23 1.875 29.21 1.875 31.25 C8.805 31.25 15.735 31.25 22.875 31.25 C23.17248965 19.08239838 23.17248965 19.08239838 17.7578125 8.73046875 C11.82174478 4.06289683 4.90204784 2.11096085 -2.546875 2.15234375 C-3.57167969 2.15556641 -4.59648437 2.15878906 -5.65234375 2.16210938 C-7.24755859 2.17467773 -7.24755859 2.17467773 -8.875 2.1875 C-9.95394531 2.19201172 -11.03289062 2.19652344 -12.14453125 2.20117188 C-14.80474383 2.21294273 -17.46484365 2.22938601 -20.125 2.25 C-13.99342675 -1.8377155 -7.02313366 -0.81929813 0 0 Z " fill="#3A3A3A" transform="translate(367.125,44.75)"/>
<path d="M0 0 C0.495 0.99 0.495 0.99 1 2 C12.55 2.33 24.1 2.66 36 3 C36 12.24 36 21.48 36 31 C12.9 31 -10.2 31 -34 31 C-34 12 -34 12 -33 5 C-32.67 5 -32.34 5 -32 5 C-32 13.25 -32 21.5 -32 30 C-9.89 30 12.22 30 35 30 C35 21.75 35 13.5 35 5 C22.79 5 10.58 5 -2 5 C-1 1 -1 1 0 0 Z " fill="#2E2E2E" transform="translate(648,116)"/>
<path d="M0 0 C0.33 0 0.66 0 1 0 C1.7262996 5.21366321 2.12605917 10.22658829 2.12939453 15.50170898 C2.13114685 16.20352798 2.13289917 16.90534698 2.13470459 17.62843323 C2.13905957 19.91767951 2.13621003 22.20684686 2.1328125 24.49609375 C2.13348684 26.09652216 2.13445794 27.69695048 2.13571167 29.29737854 C2.13717955 32.63502996 2.13506145 35.97265446 2.13037109 39.31030273 C2.12464183 43.59671101 2.12797861 47.8830571 2.13394356 52.16946316 C2.13754619 55.46615575 2.13641253 58.76283342 2.13381577 62.05952644 C2.13314734 63.64124623 2.13397198 65.22296737 2.13629532 66.80468559 C2.13882044 69.00451161 2.1349848 71.20423446 2.12939453 73.40405273 C2.12859894 74.65677475 2.12780334 75.90949677 2.12698364 77.20018005 C2 80 2 80 1 81 C-1.07262076 81.08767112 -3.14820294 81.10695873 -5.22265625 81.09765625 C-7.11274414 81.09282227 -7.11274414 81.09282227 -9.04101562 81.08789062 C-10.38151109 81.07953403 -11.72200588 81.07106907 -13.0625 81.0625 C-14.40689942 81.0574866 -15.7513006 81.05292342 -17.09570312 81.04882812 C-20.39717941 81.03699488 -23.69856803 81.02050971 -27 81 C-27 79.02 -27 77.04 -27 75 C-28.98 75.99 -28.98 75.99 -31 77 C-30.59007812 76.52949219 -30.18015625 76.05898437 -29.7578125 75.57421875 C-28.94957031 74.64029297 -28.94957031 74.64029297 -28.125 73.6875 C-27.32449219 72.76517578 -27.32449219 72.76517578 -26.5078125 71.82421875 C-24.8359553 69.86501788 -24.8359553 69.86501788 -23 67 C-22.34 67 -21.68 67 -21 67 C-21.433125 68.2684375 -21.433125 68.2684375 -21.875 69.5625 C-23.00461877 73.0141129 -24.0022792 76.50797719 -25 80 C-16.75 80 -8.5 80 0 80 C0 53.6 0 27.2 0 0 Z " fill="#2A2A2A" transform="translate(466,66)"/>
<path d="M0 0 C1 3 1 3 0.08203125 5.203125 C-1.28612105 8.73957644 -1.34235646 12.01311336 -1.3125 15.75 C-1.30831055 16.4608374 -1.30412109 17.1716748 -1.29980469 17.90405273 C-1.11378841 26.57260911 1.52093733 32.74082946 6 40 C2.16327778 38.5438453 1.03455804 36.78641047 -0.6875 33.125 C-1.31205078 31.82949219 -1.31205078 31.82949219 -1.94921875 30.5078125 C-2.86087135 28.33204681 -3.51286347 26.30185392 -4 24 C-4.52787109 25.08667969 -4.52787109 25.08667969 -5.06640625 26.1953125 C-9.69772273 35.26447009 -14.18416188 40.6090741 -24 44 C-28.77049093 44.99558072 -33.45519387 45.19182193 -38.3125 45.1875 C-39.43483032 45.1884668 -39.43483032 45.1884668 -40.57983398 45.18945312 C-45.97300301 45.13791671 -50.80020801 44.51266676 -56 43 C-56 42.67 -56 42.34 -56 42 C-55.13834229 42.02094727 -54.27668457 42.04189453 -53.38891602 42.06347656 C-50.1516525 42.13218334 -46.91476409 42.18205626 -43.67700195 42.21972656 C-42.28332186 42.23967995 -40.8897237 42.26685319 -39.49633789 42.30175781 C-29.29507163 42.55065846 -22.24891974 41.46626775 -13.6875 35.8125 C-6.34415336 28.12760235 -6.26744948 19.14970793 -6 9 C-5.34 9.66 -4.68 10.32 -4 11 C-2.68 7.37 -1.36 3.74 0 0 Z " fill="#3E3D3D" transform="translate(400,103)"/>
<path d="M0 0 C0.66 0 1.32 0 2 0 C1.84152588 1.21872803 1.68305176 2.43745605 1.51977539 3.69311523 C0.84884729 9.75866296 0.77169908 15.81273133 0.68359375 21.91015625 C0.66281265 23.11820419 0.64203156 24.32625214 0.62062073 25.57090759 C0.55562961 29.40138473 0.49647635 33.23192601 0.4375 37.0625 C0.39426674 39.67123039 0.35065097 42.27995448 0.30664062 44.88867188 C0.20000039 51.25905009 0.09859308 57.62949236 0 64 C-4.29 64 -8.58 64 -13 64 C-12.71125 62.5975 -12.4225 61.195 -12.125 59.75 C-11.36228434 55.9682015 -10.71000333 52.18796811 -10.125 48.375 C-9.21208091 42.75257766 -7.8765859 37.29436329 -6.46362305 31.78271484 C-5.12330263 26.54550211 -3.98211285 21.31406797 -3 16 C-2.73865955 14.61190789 -2.47690331 13.22389403 -2.21484375 11.8359375 C-1.47138437 7.89158056 -0.73437791 3.94605732 0 0 Z M-2 17 C-2.15855469 17.82757813 -2.31710937 18.65515625 -2.48046875 19.5078125 C-4.23068544 28.46195977 -6.18667302 37.35370097 -8.28588867 46.23291016 C-9.50771921 51.48587923 -10.4352963 56.63531485 -11 62 C-7.7 62 -4.4 62 -1 62 C-1 47.15 -1 32.3 -1 17 C-1.33 17 -1.66 17 -2 17 Z " fill="#333333" transform="translate(722,21)"/>
<path d="M0 0 C3.96734921 3.96734921 4.22680623 9.47997677 4.24884033 14.88438416 C4.24164978 15.59792557 4.23445923 16.31146698 4.22705078 17.04663086 C4.22734283 17.81818512 4.22763489 18.58973938 4.22793579 19.38467407 C4.22655271 21.91151541 4.21104018 24.43805451 4.1953125 26.96484375 C4.19157873 28.72603698 4.18873348 30.48723229 4.18673706 32.24842834 C4.17912927 36.86636162 4.15950549 41.48416755 4.1373291 46.10205078 C4.11680898 50.82127154 4.10772219 55.54051304 4.09765625 60.25976562 C4.07625672 69.50657515 4.04109804 78.75325702 4 88 C-5.24 88 -14.48 88 -24 88 C-24.495 85.525 -24.495 85.525 -25 83 C-26.32 83.99 -27.64 84.98 -29 86 C-29.66 85.67 -30.32 85.34 -31 85 C-30.55269531 84.62488281 -30.10539062 84.24976563 -29.64453125 83.86328125 C-25.92631278 80.7158767 -22.392819 77.4956317 -19 74 C-19.20496094 74.60328125 -19.40992188 75.2065625 -19.62109375 75.828125 C-19.89050781 76.62734375 -20.15992188 77.4265625 -20.4375 78.25 C-20.83775391 79.43335938 -20.83775391 79.43335938 -21.24609375 80.640625 C-21.9153949 82.7352255 -22.46667992 84.86671967 -23 87 C-14.42 87 -5.84 87 3 87 C2.91442229 77.06394113 2.82063258 67.12805228 2.71247292 57.19221306 C2.66257395 52.57836781 2.61624338 47.96454475 2.578125 43.35058594 C2.54119131 38.89603322 2.49480949 34.44166903 2.44193649 29.98727798 C2.42343546 28.28970784 2.40831173 26.59209735 2.39665604 24.8944664 C2.37971992 22.51261938 2.35066773 20.1312001 2.31884766 17.74951172 C2.31668747 17.05107651 2.31452728 16.3526413 2.31230164 15.63304138 C2.23983965 11.37406101 1.41495745 7.9928544 0 4 C0 2.68 0 1.36 0 0 Z " fill="#151515" transform="translate(538,59)"/>
<path d="M0 0 C5.06145557 4.23749769 7.69280525 8.27913219 8.4375 14.875 C8.18823817 20.7893035 5.68299828 25.35907668 1.5 29.4375 C-3.09975717 32.31234823 -7.62945491 32.54308883 -13 32 C-19.8371965 29.91407565 -22.79431852 26.70955521 -26.375 20.6875 C-27.63560191 15.2669118 -26.8320067 10.57486983 -24.25 5.6875 C-17.63094954 -2.21858805 -9.72054308 -4.43763923 0 0 Z M-20.53125 3.46484375 C-24.61300283 8.31785801 -25.35261646 11.26989751 -25.28125 17.4609375 C-24.73281999 22.4120418 -21.99954217 25.09797414 -18.4375 28.3125 C-14.28962531 31.18410556 -10.95818843 31.40640889 -6 31 C-1.72508392 29.6042718 1.32161055 27.67838945 4.5 24.5 C6.94864228 18.78650134 7.29339302 12.70469357 5.22265625 6.7734375 C2.37200496 2.00544424 -1.47098124 0.73608835 -6.6953125 -0.58984375 C-11.95413523 -1.52573593 -16.66251738 -0.2361122 -20.53125 3.46484375 Z " fill="#311615" transform="translate(784,116)"/>
<path d="M0 0 C7.92 0 15.84 0 24 0 C24.66 4.29 25.32 8.58 26 13 C29.96 13 33.92 13 38 13 C37.8453125 11.081875 37.8453125 11.081875 37.6875 9.125 C37.62949219 8.40570313 37.57148437 7.68640625 37.51171875 6.9453125 C37.12606964 4.60480784 37.12606964 4.60480784 34 3 C34.33 2.34 34.66 1.68 35 1 C38.40029608 3.80524427 39.87447422 5.1910561 40.5625 9.625 C40 13 40 13 38.5625 14.9375 C34.67731306 16.54843117 31.13862054 16.63787913 27 16 C24.4375 14.6875 24.4375 14.6875 23 12 C23 8.37 23 4.74 23 1 C15.74 1 8.48 1 1 1 C1.25101787 16.11328613 1.25101787 16.11328613 8.5625 28.875 C9.366875 29.57625 10.17125 30.2775 11 31 C12 32 13 33 14 34 C8.54057914 32.96011031 6.42815156 30.54166933 3.296875 26.265625 C-0.05100571 20.41691773 -0.25975405 15.17547801 -0.125 8.625 C-0.08375 5.77875 -0.0425 2.9325 0 0 Z " fill="#252525" transform="translate(546,110)"/>
<path d="M0 0 C3.32322183 3.32322183 2.96388278 7.26561661 3.1875 11.8125 C3.00873384 20.34452132 1.08001147 26.81189944 -5 33 C-14.61630762 41.13052618 -27.07177084 40.60182791 -39 40 C-42.40216621 39.59488179 -45.77269857 39.1855393 -49 38 C-49.33 37.34 -49.66 36.68 -50 36 C-46.6399687 35.83609603 -44.09851948 35.96847377 -40.875 37 C-31.0290226 40.00129574 -18.6591088 38.30308736 -9.54296875 33.78125 C-4.28608796 30.27016079 -1.84195819 25.96508877 0 20 C0.43115615 16.45368252 0.38601463 13.0026526 0.25 9.4375 C0.23195313 8.52419922 0.21390625 7.61089844 0.1953125 6.66992188 C0.14872701 4.44546486 0.08335485 2.22333033 0 0 Z " fill="#3A3A3A" transform="translate(610,108)"/>
<path d="M0 0 C-0.87011719 0.54527344 -0.87011719 0.54527344 -1.7578125 1.1015625 C-5.64590319 3.60379908 -9.22628225 6.02832145 -12.4375 9.375 C-13.283125 10.24125 -14.12875 11.1075 -15 12 C-15.66 12 -16.32 12 -17 12 C-17.99 18.93 -18.98 25.86 -20 33 C-7.625 32.505 -7.625 32.505 5 32 C5.33 30.35 5.66 28.7 6 27 C6.33 27 6.66 27 7 27 C7 29.31 7 31.62 7 34 C-2.24 34 -11.48 34 -21 34 C-21 13.0845666 -21 13.0845666 -13 5 C-4.78299933 -1.80715133 -4.78299933 -1.80715133 0 0 Z " fill="#1C1C1C" transform="translate(420,48)"/>
<path d="M0 0 C0.33 0 0.66 0 1 0 C1.99 5.61 2.98 11.22 4 17 C4.99 12.05 5.98 7.1 7 2 C7.33 2 7.66 2 8 2 C7.68969836 6.29182853 7.37635445 10.58342994 7.0625 14.875 C6.93198242 16.68097656 6.93198242 16.68097656 6.79882812 18.5234375 C6.2971701 25.36085057 5.73129294 32.18312934 5 39 C4.34 39 3.68 39 3 39 C2.56923105 34.41047768 2.14210255 29.82063608 1.71826172 25.23046875 C1.57374079 23.67080668 1.42824649 22.11123446 1.28173828 20.55175781 C1.07064489 18.30296703 0.86311888 16.05387036 0.65625 13.8046875 C0.59062866 13.1138205 0.52500732 12.42295349 0.45739746 11.71115112 C0.10097298 7.79317119 -0.06422173 3.93358092 0 0 Z " fill="#393939" transform="translate(172,90)"/>
<path d="M0 0 C-0.80824219 0.30292969 -1.61648438 0.60585938 -2.44921875 0.91796875 C-10.6792079 4.14444218 -16.18746923 7.03308337 -20.15234375 15.33203125 C-22.06521848 21.35273833 -22.37469109 27.74691092 -23 34 C-14.75 34 -6.5 34 2 34 C2 32.02 2 30.04 2 28 C2.66 27.67 3.32 27.34 4 27 C3.67 29.64 3.34 32.28 3 35 C-5.91 35 -14.82 35 -24 35 C-24.5077951 16.21158129 -24.5077951 16.21158129 -18.8125 7.75 C-13.66987221 2.72165283 -7.46152484 -2.39834727 0 0 Z " fill="#262626" transform="translate(498,47)"/>
<path d="M0 0 C4.3309376 4.3309376 3.95802697 11.96430808 4.078125 17.7890625 C3.54542986 32.79330894 -0.75782081 45.45858613 -9 58 C-9.495 56.515 -9.495 56.515 -10 55 C-8.70703125 52.57421875 -8.70703125 52.57421875 -6.8125 49.6875 C-0.31554018 38.9025467 1.74446469 28.45924861 1 16 C0.94271729 14.9483667 0.94271729 14.9483667 0.88427734 13.87548828 C0.63177532 9.24695509 0.33236627 4.6234522 0 0 Z " fill="#2F2F2F" transform="translate(680,28)"/>
<path d="M0 0 C9.24 0 18.48 0 28 0 C27.67 0.99 27.34 1.98 27 3 C27 2.34 27 1.68 27 1 C18.42 1 9.84 1 1 1 C1.804375 3.59875 2.60875 6.1975 3.4375 8.875 C6.18115977 18.23858712 6.8736743 27.28440493 7 37 C6.67 37 6.34 37 6 37 C5.13964143 32.53536447 4.28533472 28.0696285 3.43652344 23.6027832 C3.14715403 22.08456487 2.8561569 20.5666558 2.56347656 19.04907227 C2.14215763 16.86294293 1.72677767 14.67575444 1.3125 12.48828125 C1.11563599 11.47704948 1.11563599 11.47704948 0.91479492 10.44538879 C0.23680043 6.83154967 0 3.72105396 0 0 Z " fill="#363535" transform="translate(138,46)"/>
<path d="M0 0 C0.76441406 -0.00322266 1.52882813 -0.00644531 2.31640625 -0.00976562 C8.05852249 0.04385346 14.50359518 0.18260859 19.125 3.9375 C19.455 4.39125 19.785 4.845 20.125 5.3125 C19.39796875 5.0959375 18.6709375 4.879375 17.921875 4.65625 C7.12468165 1.666258 -3.41160508 0.58978746 -13.875 5.3125 C-20.3777478 8.99707306 -24.97339015 12.93987057 -28.875 19.3125 C-29.205 18.3225 -29.535 17.3325 -29.875 16.3125 C-26.59168609 10.41681025 -20.56343816 6.61179414 -14.875 3.3125 C-13.97523437 2.76722656 -13.07546875 2.22195312 -12.1484375 1.66015625 C-7.95388573 -0.06671769 -4.48388117 -0.09357014 0 0 Z " fill="#323232" transform="translate(71.875,35.6875)"/>
<path d="M0 0 C-2.12232979 1.17176518 -4.24757791 2.33754785 -6.375 3.5 C-6.97828125 3.83386719 -7.5815625 4.16773437 -8.203125 4.51171875 C-12.7734375 7 -12.7734375 7 -15 7 C-15.37125 7.804375 -15.37125 7.804375 -15.75 8.625 C-17 11 -17 11 -19 13.6875 C-24.22138862 22.3354249 -23.21553997 32.24082905 -23 42 C-23.33 42 -23.66 42 -24 42 C-26.0186566 32.66371322 -26.22262142 21.95426174 -21.58984375 13.39453125 C-17.88735877 7.68477652 -14.12244413 3.96455189 -8 1 C-7.071875 0.54625 -6.14375 0.0925 -5.1875 -0.375 C-3 -1 -3 -1 0 0 Z " fill="#262626" transform="translate(496,90)"/>
<path d="M0 0 C4.1935044 1.74435687 5.40197058 3.76068135 7.234375 7.7890625 C9.04236044 13.01008167 8.5795248 17.25329228 6.3125 22.25 C4.08988496 26.24756557 1.48411394 28.97209078 -2.8125 30.75 C-6.21668492 31.13904971 -9.57478946 31.05708684 -13 31 C-13 30.67 -13 30.34 -13 30 C-12.41992188 29.89042969 -11.83984375 29.78085938 -11.2421875 29.66796875 C-2.77153452 28.09403057 -2.77153452 28.09403057 3.6328125 22.7578125 C6.00076787 17.98130823 5.75167198 13.20130167 5 8 C3.68429352 5.00768145 2.07443063 2.51895148 0 0 Z " fill="#251313" transform="translate(784,117)"/>
<path d="M0 0 C8.91 0 17.82 0 27 0 C26.67 1.32 26.34 2.64 26 4 C26 3.01 26 2.02 26 1 C17.75 1 9.5 1 1 1 C0.67 4.96 0.34 8.92 0 13 C-0.45616043 15.42970426 -0.9629146 17.85165839 -1.5625 20.25 C-1.83191406 21.34828125 -2.10132813 22.4465625 -2.37890625 23.578125 C-2.58386719 24.37734375 -2.78882813 25.1765625 -3 26 C-3.33 26 -3.66 26 -4 26 C-3.91059681 23.91598092 -3.80245785 21.83276575 -3.6875 19.75 C-3.62949219 18.58984375 -3.57148438 17.4296875 -3.51171875 16.234375 C-2.84745878 10.7377505 -1.34282674 5.37130697 0 0 Z " fill="#262525" transform="translate(187,46)"/>
<path d="M0 0 C0.33 0 0.66 0 1 0 C1.66 3.96 2.32 7.92 3 12 C6.96 12 10.92 12 15 12 C14.896875 10.72125 14.79375 9.4425 14.6875 8.125 C14.62949219 7.40570313 14.57148437 6.68640625 14.51171875 5.9453125 C14.12606964 3.60480784 14.12606964 3.60480784 11 2 C11.33 1.34 11.66 0.68 12 0 C15.40029608 2.80524427 16.87447422 4.1910561 17.5625 8.625 C17 12 17 12 15.5625 13.9375 C11.67731306 15.54843117 8.13862054 15.63787913 4 15 C1.4375 13.6875 1.4375 13.6875 0 11 C-0.31339906 7.30826536 -0.22932897 3.69474459 0 0 Z " fill="#424242" transform="translate(569,111)"/>
<path d="M0 0 C2.90198426 5.18211476 4 10.07857463 4 16 C8.29 16 12.58 16 17 16 C17 21.625 17 21.625 14 25 C14 23.02 14 21.04 14 19 C10.37 18.67 6.74 18.34 3 18 C2.49309416 15.93918639 1.99475381 13.87626474 1.5 11.8125 C1.2215625 10.66394531 0.943125 9.51539063 0.65625 8.33203125 C0.08504615 5.43181171 -0.13283779 2.93903615 0 0 Z " fill="#565656" transform="translate(154,129)"/>
<path d="M0 0 C0.33 0.66 0.66 1.32 1 2 C-0.32 5.63 -1.64 9.26 -3 13 C5.58 13 14.16 13 23 13 C23 13.33 23 13.66 23 14 C14.09 14 5.18 14 -4 14 C-4.33 12.35 -4.66 10.7 -5 9 C-6.32 9.99 -7.64 10.98 -9 12 C-9.66 11.67 -10.32 11.34 -11 11 C-10.54109375 10.62488281 -10.0821875 10.24976563 -9.609375 9.86328125 C-5.96703891 6.82545052 -2.82808093 3.84619007 0 0 Z " fill="#1B1B1B" transform="translate(518,133)"/>
<path d="M0 0 C0.66 0 1.32 0 2 0 C1.71125 0.845625 1.4225 1.69125 1.125 2.5625 C-0.00461877 6.0141129 -1.0022792 9.50797719 -2 13 C6.58 13 15.16 13 24 13 C24 13.33 24 13.66 24 14 C14.76 14 5.52 14 -4 14 C-4 12.02 -4 10.04 -4 8 C-5.98 8.99 -5.98 8.99 -8 10 C-7.59007812 9.52949219 -7.18015625 9.05898437 -6.7578125 8.57421875 C-6.21898437 7.95160156 -5.68015625 7.32898438 -5.125 6.6875 C-4.59132813 6.07261719 -4.05765625 5.45773438 -3.5078125 4.82421875 C-1.8359553 2.86501788 -1.8359553 2.86501788 0 0 Z " fill="#323232" transform="translate(443,133)"/>
<path d="M0 0 C1 2 1 2 0.22265625 4.44140625 C-0.16019531 5.47136719 -0.54304688 6.50132813 -0.9375 7.5625 C-2.72450525 13.12138483 -3.39098547 18.04285936 -3.375 23.875 C-3.3762085 24.57568604 -3.37741699 25.27637207 -3.37866211 25.99829102 C-3.28256072 30.62378813 -2.33553783 34.59381987 -1 39 C-1.375 41.4375 -1.375 41.4375 -2 43 C-5.88695207 37.1695719 -5.18239646 29.86551675 -5.1875 23.0625 C-5.19974609 22.20720703 -5.21199219 21.35191406 -5.22460938 20.47070312 C-5.24184556 12.93849188 -4.37811469 6.36816683 0 0 Z " fill="#333333" transform="translate(41,55)"/>
<path d="M0 0 C0.33 0 0.66 0 1 0 C1.17700355 4.60209225 1.10814567 6.78370866 -1 11 C7.25 11 15.5 11 24 11 C24.66 7.7 25.32 4.4 26 1 C26.33 1 26.66 1 27 1 C26.85892253 2.45880109 26.71197585 3.91703551 26.5625 5.375 C26.48128906 6.18710938 26.40007812 6.99921875 26.31640625 7.8359375 C26 10 26 10 25 12 C15.76 12 6.52 12 -3 12 C-1 3 -1 3 0 0 Z " fill="#2E2E2E" transform="translate(163,169)"/>
<path d="M0 0 C0.33 0 0.66 0 1 0 C1.40659648 7.92016059 -0.11532217 14.89220081 -2 22.5625 C-2.28617188 23.76197266 -2.57234375 24.96144531 -2.8671875 26.19726562 C-3.56914753 29.13379843 -4.28026523 32.06778269 -5 35 C-5.33 35 -5.66 35 -6 35 C-6.26227839 28.28836313 -5.44301775 22.79880719 -3.5625 16.375 C-2.00518335 10.91348613 -0.65867684 5.64796463 0 0 Z " fill="#444444" transform="translate(718,40)"/>
<path d="M0 0 C0.33 0 0.66 0 1 0 C1.30989484 4.95831737 0.69166661 8.25549078 -1.2109375 12.81640625 C-2.37444413 16.03620926 -2.85888886 19.32689795 -3.375 22.703125 C-4.09310895 25.34217539 -5.24855544 26.92491894 -7 29 C-6.4476391 22.12695233 -5.01284333 16.00059271 -2.9375 9.4375 C-2.65583984 8.52419922 -2.37417969 7.61089844 -2.08398438 6.66992188 C-1.39648178 4.44427788 -0.70174718 2.22118518 0 0 Z " fill="#403F3F" transform="translate(703,11)"/>
<path d="M0 0 C0.33 0.66 0.66 1.32 1 2 C-3.75 0.125 -3.75 0.125 -6 -1 C-8.76039913 -1.09900166 -11.49005623 -1.13891568 -14.25 -1.125 C-15.00152344 -1.12886719 -15.75304687 -1.13273437 -16.52734375 -1.13671875 C-20.79532621 -1.12927026 -24.79687789 -0.84330157 -29 0 C-21.60357837 -7.39642163 -7.85688086 -5.89266064 0 0 Z " fill="#5A5A5A" transform="translate(316,49)"/>
<path d="M0 0 C0.78375 -0.515625 1.5675 -1.03125 2.375 -1.5625 C3.674375 -2.2740625 3.674375 -2.2740625 5 -3 C5.66 -2.67 6.32 -2.34 7 -2 C5.87926138 -1.16094435 4.75325453 -0.32892169 3.625 0.5 C2.99851562 0.9640625 2.37203125 1.428125 1.7265625 1.90625 C0 3 0 3 -2 3 C-3.66666667 1.33333333 -5.33333333 -0.33333333 -7 -2 C-11.02945729 -4.97646323 -13.84708382 -5.33796716 -18.8125 -5.1875 C-19.97394531 -5.16042969 -21.13539063 -5.13335937 -22.33203125 -5.10546875 C-23.21246094 -5.07066406 -24.09289062 -5.03585938 -25 -5 C-17.65171424 -12.34828576 -6.43522034 -5.00517138 0 0 Z " fill="#2E2D2D" transform="translate(280,52)"/>
<path d="M0 0 C1.23322843 3.58348444 0.7721117 6.18697824 0.00390625 9.859375 C-0.33930664 11.53193359 -0.33930664 11.53193359 -0.68945312 13.23828125 C-0.93630859 14.39714844 -1.18316406 15.55601562 -1.4375 16.75 C-1.68048828 17.92433594 -1.92347656 19.09867188 -2.17382812 20.30859375 C-2.77480798 23.20743777 -3.38380502 26.1043588 -4 29 C-4.33 29 -4.66 29 -5 29 C-5.83362713 18.82974896 -2.78162071 9.67606633 0 0 Z " fill="#3D3D3D" transform="translate(197,129)"/>
<path d="M0 0 C0.33 0 0.66 0 1 0 C1.08859875 3.91651903 1.14091917 7.83277374 1.1875 11.75 C1.22520508 13.38775391 1.22520508 13.38775391 1.26367188 15.05859375 C1.33099313 22.64345478 0.68103688 29.83920691 -2 37 C-2.99 37.495 -2.99 37.495 -4 38 C-3.57656405 34.54193974 -3.11447429 31.33984554 -2 28.03125 C-0.42795167 22.66926351 -0.53302183 17.10972457 -0.375 11.5625 C-0.33632812 10.44939453 -0.29765625 9.33628906 -0.2578125 8.18945312 C-0.16409034 5.45979524 -0.07837706 2.73013437 0 0 Z " fill="#2F2F2F" transform="translate(137,73)"/>
<path d="M0 0 C3.32940088 -0.1624098 5.84628579 -0.05070984 9.03125 1 C13.94311594 2.46582098 18.85599331 2.21530702 23.9375 2.125 C24.90751953 2.11597656 25.87753906 2.10695312 26.87695312 2.09765625 C29.25156407 2.07426107 31.62564776 2.04148176 34 2 C34 2.33 34 2.66 34 3 C23.61981514 4.68290935 11.0581018 5.69481291 1 2 C0.67 1.34 0.34 0.68 0 0 Z " fill="#333333" transform="translate(560,144)"/>
<path d="M0 0 C-0.56847656 0.36351562 -1.13695312 0.72703125 -1.72265625 1.1015625 C-6.82782691 4.42546327 -11.45773055 7.94095071 -16 12 C-15.91740329 9.19171195 -15.44224482 7.47599508 -13.515625 5.40234375 C-5.17739176 -1.84906849 -5.17739176 -1.84906849 0 0 Z " fill="#828282" transform="translate(420,48)"/>
<path d="M0 0 C0.94359375 0.32484375 0.94359375 0.32484375 1.90625 0.65625 C12.0303755 3.94964022 18.96806838 3.09809653 29 0 C26.6953711 3.45694334 25.29711971 3.79937433 21.34765625 4.65234375 C14.66840426 5.64145095 8.30759426 5.49675606 2 3 C1.34 2.01 0.68 1.02 0 0 Z " fill="#353535" transform="translate(406,143)"/>
<path d="M0 0 C4.14910028 4.14910028 4.07821158 12.34439963 4.25 18.0625 C4 21 4 21 2 24 C1.34 16.08 0.68 8.16 0 0 Z " fill="#4B4B4B" transform="translate(680,28)"/>
<path d="M0 0 C7.86694206 0.49168388 14.36956503 8.0733694 20 13 C19.67 13.66 19.34 14.32 19 15 C18.25556641 14.32904297 18.25556641 14.32904297 17.49609375 13.64453125 C9.38940179 6.39338859 9.38940179 6.39338859 0 1 C0 0.67 0 0.34 0 0 Z " fill="#2C2C2C" transform="translate(102,15)"/>
<path d="M0 0 C0.99 0.33 1.98 0.66 3 1 C1.98679688 1.67095703 1.98679688 1.67095703 0.953125 2.35546875 C-3.75979235 5.54962805 -7.61686414 8.3481882 -11 13 C-11.66 13 -12.32 13 -13 13 C-12.8125 10.6875 -12.8125 10.6875 -12 8 C-9.875 6.5 -9.875 6.5 -7 5 C-5.19570689 3.65469373 -3.41673653 2.28286044 -1.6484375 0.890625 C-0.83246094 0.44976562 -0.83246094 0.44976562 0 0 Z " fill="#4A4A4A" transform="translate(252,47)"/>
<path d="M0 0 C4.72173269 0.69869876 9.27775349 1.80182097 13.875 3.0625 C14.90753906 3.3419043 14.90753906 3.3419043 15.9609375 3.62695312 C17.64132514 4.08205811 19.32076322 4.54066678 21 5 C21 5.33 21 5.66 21 6 C13.18202122 6.76646851 7.12033152 4.03916589 0 1 C0 0.67 0 0.34 0 0 Z " fill="#4F4F4F" transform="translate(44,141)"/>
<path d="M0 0 C-0.81984375 0.37511719 -1.6396875 0.75023437 -2.484375 1.13671875 C-4.10085938 1.90435547 -4.10085938 1.90435547 -5.75 2.6875 C-6.81734375 3.18636719 -7.8846875 3.68523438 -8.984375 4.19921875 C-12.19310164 6.11531069 -13.84504442 7.98306218 -16 11 C-16.98230498 12.0173873 -17.97469597 13.02596117 -19 14 C-17.77165477 7.70473071 -14.03419392 4.56237186 -9 1 C-3.912 -1.304 -3.912 -1.304 0 0 Z " fill="#303030" transform="translate(638,11)"/>
<path d="M0 0 C0.33 0 0.66 0 1 0 C1.85129163 7.32110805 -1.19987083 13.34969322 -4 20 C-5.08062462 16.75812614 -4.96405231 16.10290139 -4.00390625 12.98828125 C-3.77509766 12.23095703 -3.54628906 11.47363281 -3.31054688 10.69335938 C-3.06369141 9.90767578 -2.81683594 9.12199219 -2.5625 8.3125 C-2.19801758 7.11657227 -2.19801758 7.11657227 -1.82617188 5.89648438 C-1.22520262 3.92860466 -0.6136095 1.96397505 0 0 Z " fill="#4F4F4F" transform="translate(695,40)"/>
<path d="M0 0 C-2.12232979 1.17176518 -4.24757791 2.33754785 -6.375 3.5 C-6.97828125 3.83386719 -7.5815625 4.16773437 -8.203125 4.51171875 C-12.7734375 7 -12.7734375 7 -15 7 C-15.66 8.32 -16.32 9.64 -17 11 C-17 8 -17 8 -15.875 6.5625 C-5.71428571 -1.9047619 -5.71428571 -1.9047619 0 0 Z " fill="#3B3B3B" transform="translate(496,90)"/>
<path d="M0 0 C0.33 0.66 0.66 1.32 1 2 C0.06421005 4.35981813 -0.93347808 6.69631264 -2 9 C-2.99 9 -3.98 9 -5 9 C-7.17032476 10.43990623 -7.17032476 10.43990623 -9 12 C-9.66 11.67 -10.32 11.34 -11 11 C-10.54109375 10.62488281 -10.0821875 10.24976563 -9.609375 9.86328125 C-5.96703891 6.82545052 -2.82808093 3.84619007 0 0 Z " fill="#353535" transform="translate(518,133)"/>
<path d="M0 0 C0 4.10337771 -2.08338683 6.40549438 -4.375 9.625 C-4.7875 10.223125 -5.2 10.82125 -5.625 11.4375 C-8.7304007 15.86520035 -8.7304007 15.86520035 -11 17 C-10.12429445 12.59214242 -7.68803513 9.69289817 -4.9375 6.25 C-4.46505859 5.64800781 -3.99261719 5.04601562 -3.50585938 4.42578125 C-2.34309599 2.94590057 -1.1723234 1.47231904 0 0 Z " fill="#2F2F2F" transform="translate(660,99)"/>
<path d="M0 0 C-2.66153819 2.66153819 -5.35518569 3.15804248 -8.90625 4.21875 C-11.17829143 4.90142987 -11.17829143 4.90142987 -13 7 C-15.125 6.625 -15.125 6.625 -17 6 C-15.11076602 4.98758753 -13.21330056 3.99052575 -11.3125 3 C-10.25675781 2.443125 -9.20101562 1.88625 -8.11328125 1.3125 C-5.07773738 0.0327726 -3.23973174 -0.28851043 0 0 Z " fill="#494949" transform="translate(57,11)"/>
<path d="M0 0 C-0.51949219 0.38671875 -1.03898437 0.7734375 -1.57421875 1.171875 C-5.4342631 4.05442199 -9.26026958 6.96146903 -13 10 C-10.55274847 4.21558729 -6.78564708 -2.03569412 0 0 Z " fill="#A0A0A0" transform="translate(347,48)"/>
<path d="M0 0 C0.33 0 0.66 0 1 0 C1.36263859 5.8022175 0.25684543 9.63999211 -2 15 C-2.33 15 -2.66 15 -3 15 C-2.5547115 9.72684667 -1.91626837 4.98229776 0 0 Z " fill="#515151" transform="translate(167,154)"/>
<path d="M0 0 C0.33 0 0.66 0 1 0 C1.19392201 5.52677733 0.7479503 9.75614911 -1 15 C-1.33 15 -1.66 15 -2 15 C-2.21755666 9.5610835 -2.10428384 5.12919186 0 0 Z " fill="#616161" transform="translate(714,60)"/>
<path d="M0 0 C1.45606519 4.52092968 0.27032841 7.51648796 -1 12 C-1.33 12 -1.66 12 -2 12 C-2 8.7 -2 5.4 -2 2 C-1.34 2 -0.68 2 0 2 C0 1.34 0 0.68 0 0 Z " fill="#4D4D4D" transform="translate(194,146)"/>
<path d="M0 0 C1 2 1 2 0.44140625 4.1640625 C0.15136719 4.97617187 -0.13867188 5.78828125 -0.4375 6.625 C-0.72496094 7.44226562 -1.01242188 8.25953125 -1.30859375 9.1015625 C-1.53675781 9.72804688 -1.76492187 10.35453125 -2 11 C-2.66 11 -3.32 11 -4 11 C-3.48964169 6.6109185 -2.47785723 3.66291938 0 0 Z " fill="#464646" transform="translate(41,55)"/>
<path d="M0 0 C0 3.52032428 -0.70351351 4.4385343 -3 7 C-3.66 7 -4.32 7 -5 7 C-4.75 4.625 -4.75 4.625 -4 2 C-1.9375 0.6875 -1.9375 0.6875 0 0 Z " fill="#333333" transform="translate(244,53)"/>
<path d="M0 0 C0.95465783 2.16967689 1.14401212 3.56328793 0.3984375 5.82421875 C-0.35870385 7.5684743 -1.17609198 9.28627131 -2 11 C-2.33 11 -2.66 11 -3 11 C-3.39253254 6.55129785 -2.15305957 3.85756507 0 0 Z " fill="#828282" transform="translate(699,29)"/>
</svg>
